<svg width="45" height="45" viewBox="0 0 45 45" fill="none" xmlns="http://www.w3.org/2000/svg">
<path d="M20.8367 0.223041C20.398 0.408631 16.062 3.79987 7.67667 10.5317C6.47877 11.4934 4.42041 13.13 3.12128 14.1592C0.168718 16.5043 0 16.7068 0 17.5335C0 18.0397 0.101231 18.259 0.523026 18.6133C1.01231 19.0351 1.11354 19.052 3.22251 19.052H5.39898L5.43272 27.3529L5.48334 35.6707L7.50795 35.7213C9.49883 35.7719 11.0173 35.6201 12.4345 35.2152L13.16 35.0127L13.1938 28.4496L13.2444 21.8864L22.3214 21.8358L31.3816 21.7852V25.9863V30.1874H31.9552C33.5243 30.1874 37.3036 30.8285 38.5521 31.3009C38.7714 31.3853 38.8052 30.7104 38.8052 25.2271V19.052H41.0828C43.3437 19.052 43.3774 19.052 43.7992 18.5964C44.3391 18.0228 44.4572 17.4829 44.2041 16.8755C44.0692 16.5549 42.4832 15.1883 39.4463 12.7925C36.9324 10.8017 33.2375 7.88284 31.2297 6.31376C24.9534 1.35345 23.5699 0.290528 23.165 0.138682C22.5913 -0.0806516 21.4272 -0.0300362 20.8367 0.223041ZM30.3861 10.7004C31.3309 11.5946 31.3816 11.8815 31.3816 16.5212V20.7392H22.2708H13.1431L13.1938 16.285C13.2444 11.3078 13.2444 11.3584 14.5098 10.4811L15.0834 10.093L22.4564 10.1437L29.8462 10.1943L30.3861 10.7004Z" fill="black"/>
<path d="M16.0618 16.3021L16.1125 18.6304H16.6186H17.1248V16.3527V14.075L16.568 14.0244L16.0112 13.9738L16.0618 16.3021Z" fill="black"/>
<path d="M16.2477 24.0462C16.0789 24.1137 16.0283 24.9236 16.0283 27.2519V30.3563L16.467 30.4575C16.7032 30.525 16.9731 30.4913 17.0575 30.4069C17.1419 30.3225 17.1925 28.939 17.1756 27.1338C17.125 24.1643 17.1081 24.0293 16.7876 23.9956C16.602 23.9787 16.3489 24.0125 16.2477 24.0462Z" fill="black"/>
<path d="M28.2603 32.1614C25.2234 32.5495 23.3337 33.0894 18.8121 34.8609C16.2982 35.8564 13.8518 36.6831 12.7382 36.9362C11.2704 37.2567 8.48652 37.611 7.33924 37.611C5.66893 37.611 2.64887 37.0374 1.1979 36.4469C0.539898 36.1769 0 36.0082 0 36.0757C0 36.43 1.11354 37.9991 1.87277 38.7414C5.1459 41.9133 9.49883 43.2968 14.7797 42.8413C17.9685 42.5545 20.0437 41.8965 25.4764 39.4163C29.1545 37.746 29.3738 37.6617 31.0441 37.088C35.6164 35.5021 39.8512 35.8732 43.1243 38.1341C43.8836 38.6571 43.9004 38.6571 43.7823 38.269C43.3605 36.8518 41.8758 35.0803 40.2393 34.0005C38.9739 33.1569 36.8143 32.4651 34.4691 32.1446C32.1745 31.824 30.7573 31.824 28.2603 32.1614Z" fill="black"/>
<path d="M33.0688 38.6234C31.5335 39.0114 29.4245 39.8719 25.409 41.7953C23.7218 42.5883 21.5622 43.5162 20.6005 43.8705C18.6603 44.5454 18.6603 44.5623 20.8367 44.8828C24.1099 45.3552 28.1253 44.4104 33.4906 41.8965C35.8695 40.7999 37.3374 40.4287 39.5644 40.4118C40.678 40.3949 41.8421 40.4456 42.1627 40.5299C42.7363 40.648 42.7363 40.648 42.4158 40.2937C41.9265 39.7538 39.8513 38.8259 38.4846 38.539C36.8987 38.2016 34.6547 38.2353 33.0688 38.6234Z" fill="black"/>
</svg>
